<?xml version="1.0" encoding="UTF-8" standalone="no"?>
<!-- Created with Inkscape (http://www.inkscape.org/) -->

<svg
   xmlns:dc="http://purl.org/dc/elements/1.1/"
   xmlns:cc="http://creativecommons.org/ns#"
   xmlns:rdf="http://www.w3.org/1999/02/22-rdf-syntax-ns#"
   xmlns:svg="http://www.w3.org/2000/svg"
   xmlns="http://www.w3.org/2000/svg"
   xmlns:sodipodi="http://sodipodi.sourceforge.net/DTD/sodipodi-0.dtd"
   xmlns:inkscape="http://www.inkscape.org/namespaces/inkscape"
   width="520mm"
   height="190mm"
   viewBox="0 0 1842.5182 673.22817"
   id="svg4378"
   version="1.1"
   inkscape:version="0.91 r13725"
   sodipodi:docname="leap_pixelated.svg">
  <defs
     id="defs4380" />
  <sodipodi:namedview
     id="base"
     pagecolor="#ffffff"
     bordercolor="#666666"
     borderopacity="1.0"
     inkscape:pageopacity="0.0"
     inkscape:pageshadow="2"
     inkscape:zoom="0.35"
     inkscape:cx="1187.941"
     inkscape:cy="520"
     inkscape:document-units="px"
     inkscape:current-layer="layer1"
     showgrid="false"
     inkscape:window-width="1364"
     inkscape:window-height="747"
     inkscape:window-x="0"
     inkscape:window-y="19"
     inkscape:window-maximized="1" />
  <metadata
     id="metadata4383">
    <rdf:RDF>
      <cc:Work
         rdf:about="">
        <dc:format>image/svg+xml</dc:format>
        <dc:type
           rdf:resource="http://purl.org/dc/dcmitype/StillImage" />
        <dc:title></dc:title>
      </cc:Work>
    </rdf:RDF>
  </metadata>
  <g
     inkscape:label="Layer 1"
     inkscape:groupmode="layer"
     id="layer1"
     transform="translate(0,-379.13409)">
    <path
       style="display:inline;fill:none;stroke:#000000;stroke-width:16;stroke-miterlimit:4;stroke-dasharray:none;stroke-opacity:1"
       d="m 264.37705,1013.9865 c -5.07508,-1.1951 -8.66981,-3.1416 -14.11638,-7.6441 -2.50451,-2.0704 -5.93394,-4.8273 -7.62096,-6.1265 -1.68701,-1.29917 -5.49669,-5.64716 -8.46595,-9.6622 -5.48443,-7.41604 -9.86933,-11.04889 -19.2233,-15.92631 -2.86499,-1.49389 -5.49587,-3.61977 -5.8464,-4.72417 -0.43381,-1.3668 -1.24482,-1.84915 -2.53977,-1.51051 -1.06525,0.27857 -3.46271,-0.56133 -5.448,-1.90858 -1.95006,-1.32334 -3.7648,-2.40608 -4.03276,-2.40608 -0.7027,0 -14.49569,-10.36148 -24.4175,-18.34276 -4.67857,-3.76352 -10.03215,-8.03852 -11.89686,-9.5 -1.8647,-1.46148 -4.18263,-3.40017 -5.15094,-4.30819 -3.08982,-2.89742 -20.55773,-14.51807 -26.92315,-17.9108 -3.38015,-1.8016 -6.58676,-4.09972 -7.12581,-5.10694 -0.53905,-1.00722 -1.8866,-1.83131 -2.99456,-1.83131 -1.10796,0 -3.22963,-0.62391 -4.71482,-1.38648 -1.48518,-0.76256 -5.40034,-2.07473 -8.70034,-2.91594 -3.3,-0.84121 -10.275,-3.5373 -15.5,-5.99133 -5.225,-2.45402 -13.46268,-6.33313 -18.30597,-8.62025 -4.84328,-2.28711 -10.24328,-4.43137 -12,-4.76501 -1.75671,-0.33365 -4.46396,-1.24569 -6.0161,-2.02676 -1.96275,-0.9877 -4.39877,-1.22387 -8,-0.7756 -5.00257,0.6227 -5.32186,0.5115 -9.42793,-3.28344 -2.3375,-2.16038 -4.25,-4.80882 -4.25,-5.88541 0,-1.0766 1.59168,-3.50016 3.53707,-5.38571 2.96456,-2.87336 4.21898,-3.40818 7.75,-3.30418 2.31711,0.0682 4.72807,-0.2931 5.35767,-0.80299 0.62961,-0.50989 1.52961,-0.82166 2,-0.69282 0.4704,0.12884 5.80173,-0.11777 11.84741,-0.54801 6.04569,-0.43025 14.05802,-0.96454 17.80518,-1.18731 5.9885,-0.35601 8.18379,-1.1249 18.13958,-6.35326 6.74391,-3.54162 13.8335,-6.46604 17.52275,-7.22804 5.6804,-1.17327 6.49959,-1.11613 9.84094,0.68637 3.77427,2.03604 4.89368,4.16009 8.67791,16.46617 1.63687,5.32299 2.96518,8.87897 4.48252,12 1.14789,2.36112 14.16419,9.35375 22.21664,11.93525 6.34026,2.0326 22.20078,8.24614 28.32233,11.0956 1.1,0.51203 5.825,2.31313 10.5,4.00244 4.675,1.68932 11.54195,4.46658 15.25988,6.17169 l 6.75988,3.1002 11.24012,-1.71854 c 6.18207,-0.9452 13.94012,-2.33088 17.24012,-3.07928 3.3,-0.74841 8.29549,-1.65174 11.10108,-2.00741 l 5.10108,-0.64666 2.26885,-10.17665 c 2.36138,-10.59171 7.46555,-26.23069 9.29225,-28.4711 0.58048,-0.71195 1.09622,-5.48053 1.14608,-10.59684 0.0563,-5.7727 0.55811,-9.86543 1.32262,-10.78627 0.67757,-0.81613 1.45574,-5.21519 1.72925,-9.77569 0.27352,-4.5605 1.01173,-8.91168 1.64049,-9.66928 0.77437,-0.93306 0.81929,-1.78074 0.13925,-2.62746 -0.55217,-0.6875 -1.2972,-3.05 -1.65563,-5.25 -0.35843,-2.2 -1.10341,-6.7 -1.65552,-10 -2.27136,-13.57606 -2.27351,-14.54384 -0.039,-17.5662 1.16005,-1.56905 2.12513,-3.65854 2.14462,-4.64331 0.0195,-0.98477 0.67854,-2.91549 1.46456,-4.29049 2.0951,-3.665 1.8138,-5.96533 -1.00019,-8.17881 -2.28131,-1.79448 -2.44559,-2.43114 -1.87658,-7.27256 l 0.62361,-5.30591 -5.04646,-1.67616 c -6.96458,-2.31327 -7.71928,-3.4369 -6.25524,-9.31311 0.65138,-2.6144 2.05519,-6.24167 3.11959,-8.06061 1.0644,-1.81894 1.93527,-3.92378 1.93527,-4.67742 0,-2.12529 4.76612,-5.38934 7.01189,-4.80206 2.45492,0.64198 2.62079,-1.22734 0.23811,-2.68342 -1.5579,-0.95205 -1.24091,-1.51389 2.88761,-5.11811 l 4.63762,-4.04866 -1.89309,-6.18158 c -2.77159,-9.05017 -2.96584,-10.71224 -1.32555,-11.34168 0.79388,-0.30464 1.44341,-1.22889 1.44341,-2.05389 0,-0.9389 -0.57526,-1.27925 -1.53785,-0.90987 -2.6938,1.03371 -2.77388,-2.21393 -0.18834,-7.63802 1.37329,-2.88097 2.77077,-6.43066 3.10551,-7.8882 l 3.61907,-8.4931 c -1.07772,-1.13265 2.57731,-15.23051 4.49928,-17.35426 0.82628,-0.91303 1.50233,-2.43361 1.50233,-3.37906 0,-2.15114 4.57598,-6.47898 7.67206,-7.25605 2.61715,-0.65686 2.8572,-1.54712 1.15299,-4.276 -1.86554,-2.98719 0.6409,-25.52472 4.125,-37.09146 1.57387,-5.225 2.87092,-10.175 2.88235,-11 0.0114,-0.825 0.33687,-3.18244 0.72321,-5.23875 0.77916,-4.14717 -2.69126,-16.79902 -5.17295,-18.85864 -0.76044,-0.63112 -1.38264,-0.87372 -1.38264,-0.53909 0,0.9394 -11.06712,-3.40431 -15.05329,-5.90824 -1.95431,-1.22761 -6.74665,-3.84016 -10.64964,-5.80568 -3.903,-1.96552 -8.82902,-4.76141 -10.94671,-6.2131 -7.99565,-5.48105 -14.22855,-7.52754 -23.33772,-7.66264 -5.37533,-0.0797 -9.41701,0.36041 -10.96651,1.19424 -3.8837,2.08991 -12.12148,4.0071 -17.2733,4.02003 -2.63213,0.007 -7.6708,-1.09611 -11.36906,-2.48813 -8.45552,-3.18265 -11.18228,-3.21276 -12.35192,-0.13638 -0.96185,2.52985 -3.58809,4.04103 -5.24413,3.01755 -0.55648,-0.34393 -1.64691,-2.14539 -2.42317,-4.00325 -1.05066,-2.51458 -2.02837,-3.37792 -3.82539,-3.37792 -2.71543,0 -6.55916,-4.20057 -6.55916,-7.1681 0,-3.7574 4.88566,-11.77079 7.50824,-12.31492 1.37047,-0.28434 3.50426,-0.74115 4.74176,-1.01513 2.69125,-0.59584 9.26355,-6.67509 14.18584,-13.12162 7.26284,-9.51185 13.11824,-11.5293 19.96902,-6.88023 2.02618,1.375 3.8959,2.5 4.15493,2.5 0.25904,0 2.82656,1.55391 5.70559,3.45313 3.05684,2.01651 10.64308,5.19197 18.23462,7.63268 13.2176,4.24949 15.60406,4.83927 28,6.91978 11.50464,1.93091 21.47341,4.89974 28.80161,8.57751 l 6.91178,3.46878 6.14331,-2.44678 c 5.80065,-2.31032 12.3634,-3.63629 19.1433,-3.8678 4.32398,-0.14765 15.6638,2.0265 16.87216,3.23486 0.56531,0.56531 4.28994,1.02784 8.27695,1.02784 7.22195,0 7.25939,-0.014 9.99483,-3.75 1.51014,-2.0625 3.07445,-4.14391 3.47624,-4.62535 0.40178,-0.48144 2.81259,0.13258 5.35736,1.36448 5.49256,2.6589 6.99369,1.93039 3.2243,-1.56478 -1.88156,-1.74468 -2.70184,-3.505 -2.70184,-5.79816 0,-1.81107 -0.3375,-3.63135 -0.75,-4.04507 -0.4125,-0.41371 -0.7955,-6.90121 -0.8511,-14.41667 -0.0556,-7.51545 -0.4291,-14.8158 -0.82998,-16.22299 -0.82663,-2.90169 2.15665,-10.94146 4.05999,-10.94146 2.108,0 2.21416,-2.63463 0.28023,-6.95421 -2.32838,-5.2006 -2.36846,-6.04579 -0.2867,-6.04579 1.27968,0 1.37622,-0.2967 0.45695,-1.40435 -0.64473,-0.77685 -0.88499,-2.52203 -0.53771,-3.90572 0.49722,-1.98104 0.1827,-2.64264 -1.51198,-3.18051 -3.03621,-0.96365 -1.96016,-2.95171 1.79854,-3.32287 2.84588,-0.28103 3.06227,-0.52262 2.09197,-2.33565 -1.44346,-2.69713 -0.48799,-3.43063 2.62262,-2.01335 3.7966,1.72985 7.87037,1.41186 10.73004,-0.83755 1.39842,-1.1 2.95807,-2 3.46588,-2 0.50781,0 1.5457,-1.16298 2.30641,-2.58439 2.13032,-3.98054 6.68435,-6.88499 8.47072,-5.40244 1.15499,0.95856 2.359,0.66416 5.99268,-1.46533 2.86155,-1.67697 5.27863,-2.43277 6.52006,-2.03876 1.18999,0.37769 3.06365,-0.12971 4.72207,-1.27875 4.86136,-3.36825 6.26616,-3.45483 9.98866,-0.61559 2.8072,2.1412 3.6449,2.38576 4.3462,1.26884 0.4779,-0.76097 0.6698,-2.05858 0.4267,-2.88358 -0.6569,-2.22847 12.6542,-6.51647 15.5004,-4.99326 2.6748,1.43152 1.7281,2.85752 -1.4888,2.24257 -2.972,-0.56813 -2.9915,-0.49408 -0.9506,3.59705 1.9005,3.80963 5.7668,4.24717 9.7618,1.10471 l 2.6048,-2.04892 5.7421,3.02404 5.7421,3.02405 2.2619,-2.12492 c 2.7465,-2.58024 3.0868,-1.98029 4.1061,7.23935 l 0.708,6.40293 3.6976,0.60026 c 4.4271,0.71869 6.8024,2.49231 6.8024,5.07933 0,1.10899 1.0425,2.29869 2.5,2.85281 1.375,0.52277 2.5,1.30373 2.5,1.73546 0,0.43174 1.1641,2.04047 2.587,3.57497 1.9976,2.1543 2.8944,2.53489 3.9361,1.67039 0.9876,-0.81964 1.902,-0.82367 3.4129,-0.015 2.5971,1.38988 2.6094,3.07112 0.046,6.32945 -1.2416,1.57843 -1.6248,2.80773 -0.9963,3.19615 0.5617,0.34715 0.7458,1.7286 0.4092,3.06989 -0.4616,1.83942 -0.2107,2.43872 1.0213,2.43872 1.0196,0 1.8619,-1.1421 2.2413,-3.03907 0.8836,-4.41811 2.7292,-3.05936 3.5617,2.62225 0.5552,3.78877 0.3833,5.17153 -0.7495,6.02706 -0.8085,0.61063 -1.47,1.82157 -1.47,2.69098 0,2.65738 2.1794,3.11238 3.9111,0.81655 1.2924,-1.71329 1.8947,-1.91189 2.8628,-0.94382 1.7788,1.77878 1.5027,10.17807 -0.4706,14.31607 l -1.6966,3.55788 3.1148,2.84493 c 2.4896,2.27389 3.0594,3.5236 2.839,6.22605 -0.1516,1.85961 -0.3398,5.06862 -0.4181,7.13112 -0.1985,5.225 -2.977,7.75 -8.5281,7.75 -4.5272,0 -6.1475,0.64042 -13.3398,5.27265 -3.1285,2.01494 -5.1139,2.60763 -7.6482,2.28316 -3.5817,-0.45857 -5.1842,0.65494 -7.5672,5.25811 -1.88,3.63149 -0.03,4.80497 7.9102,5.01827 12.9941,0.34905 35.8502,-6.36888 47.0307,-13.82341 5.3356,-3.55754 18.1068,-7.93016 29.5,-10.10025 9.0623,-1.72614 35.1468,-10.58392 47,-15.96026 2.2,-0.99788 6.1521,-2.72562 8.7824,-3.83943 3.3569,-1.42146 8.2485,-5.46548 16.4103,-13.56697 9.0983,-9.03111 12.2182,-11.54187 14.3418,-11.54187 1.4927,0 4.6831,-0.70918 7.0897,-1.57596 2.4067,-0.86677 5.2193,-1.75172 6.2502,-1.96655 1.031,-0.21484 2.9277,-1.08066 4.2149,-1.92405 1.2871,-0.84339 3.2785,-1.53344 4.4251,-1.53344 2.4009,0 7.5719,2.44575 10.4856,4.95939 1.1,0.949 4.62791,2.76505 7.83991,4.03568 3.212,1.27063 6.0791,2.9333 6.3713,3.69483 0.5677,1.47928 -2.3451,5.3101 -4.0375,5.3101 -0.5589,0 -1.841,0.74641 -2.8491,1.6587 -1.5935,1.44207 -2.3366,1.49246 -5.6897,0.38583 -3.35991,-1.10887 -4.19681,-1.05009 -6.49591,0.45631 -2.0882,1.36825 -2.639,2.52493 -2.639,5.54159 0,4.4876 -3.1644,7.58932 -8.6015,8.43128 -1.8692,0.28946 -5.0352,0.78323 -7.0355,1.09728 -2.5477,0.4 -4.6962,1.75103 -7.1742,4.51139 -3.6157,4.02759 -14.7323,10.91762 -17.6149,10.91762 -0.8806,0 -2.3825,0.39342 -3.3375,0.87428 -8.0974,4.07697 -11.7911,6.26739 -18.7364,11.11085 -20.1817,14.07412 -29.5492,19.56828 -50.0266,29.34134 -23.5979,11.26231 -26.075,12.13518 -37.3205,13.15045 -4.0408,0.36481 -13.2658,2.15386 -20.5,3.97564 l -13.1529,3.31235 -15.90822,8.2211 c -11.20683,8.13363 -16.2173,10.72429 -17.66899,18.60624 -4.58959,8.22927 -7.82755,15.09367 -10.08165,24.1275 -1.11754,4.47881 -5.12004,12.40596 -5.37124,15.61516 -0.2512,3.2092 -1.0989,7.2592 -1.8838,9 -0.7849,1.7408 -1.4878,3.57322 -2.074,5.41509 -1.5069,4.28804 -2.4362,5.30621 -3.5651,7.9641 -0.8111,1.90984 -1.3445,4.09443 -1.8304,5.04947 -1.1723,2.30448 -2.3523,5.16805 -6.0728,14.73643 -1.7108,4.4 -4.7013,10.59261 -6.64552,13.76135 -1.94419,3.16874 -3.7271,6.82136 -3.96204,8.11693 -0.23493,1.29557 -1.0488,3.87797 -1.80861,5.73865 -0.7598,1.86069 -1.6969,5.5704 -2.08245,8.24381 l -0.70099,4.86073 17.82791,-0.66724 c 9.8053,-0.36699 23.2279,-1.10958 29.8279,-1.6502 6.6,-0.54063 22.1295,-0.90625 34.5101,-0.8125 21.5787,0.16341 22.735,0.0737 27.9476,-2.16871 6.3395,-2.72717 9.8018,-2.84252 20.0423,-0.66773 5.1741,1.09883 13.0234,1.61075 25.3106,1.65072 19.4993,0.0634 22.5381,0.74885 27.0399,6.09894 3.1218,3.71008 5.3987,16.40728 3.7766,21.06051 -2.147,6.15888 -1.5699,7.69819 4.0064,10.68503 8.1319,4.35568 28.8562,18.32794 37.5836,25.33865 4.3895,3.52608 9.2114,7.31106 10.7153,8.41106 1.5039,1.1 5.2843,3.95883 8.4009,6.35296 12.6672,9.73056 33.87971,23.03497 40.02091,25.10092 6.095,2.0504 6.5642,2.07091 11.5,0.50277 6.8292,-2.16969 11.7117,-4.57691 20.1458,-9.93243 11.6433,-7.39341 13.0097,-8.81208 14.5097,-15.06467 1.0309,-4.29757 2.3335,-6.59107 5.558,-9.78629 2.3163,-2.29529 4.3736,-5.02557 4.5718,-6.06728 0.1983,-1.04171 1.585,-2.80737 3.0816,-3.92368 2.2837,-1.70344 3.1275,-1.84447 5.25,-0.87742 1.9265,0.8778 2.5456,1.93143 2.5991,4.42368 0.039,1.79929 0.4233,4.17144 0.8547,5.27144 0.4315,1.1 0.4264,3.25432 -0.011,4.78739 -0.503,1.76246 -0.2697,4.52021 0.6345,7.5 0.7866,2.59193 1.435,5.96507 1.4409,7.49585 0.021,5.3195 -4.4442,11.99698 -12.4495,18.61875 -4.2005,3.47446 -8.3991,7.50538 -9.3304,8.9576 -0.9313,1.45223 -2.4217,3.44548 -3.312,4.42945 -1.9454,2.15013 -4.893,10.90387 -4.9081,14.57579 -0.038,9.16741 -8.8684,24.61796 -15.5146,27.14485 -7.09,2.6956 -13.5536,0.0808 -26.6727,-10.78996 -5.334,-4.41988 -14.82421,-11.421 -21.08931,-15.55806 -13.2707,-8.76309 -42.0552,-23.08082 -55.7125,-27.71199 -12.119,-4.1095 -20.3976,-8.05508 -30.7849,-14.67204 -4.5566,-2.9027 -8.8769,-5.27763 -9.6006,-5.27763 -0.7236,0 -3.6183,2.51397 -6.4326,5.5866 -4.7326,5.16706 -5.3634,5.53663 -8.3994,4.92122 -1.8054,-0.36596 -4.4961,-1.5257 -5.9793,-2.5772 -1.4833,-1.0515 -2.9429,-1.51372 -3.2436,-1.02716 -0.7039,1.13904 -13.2652,0.59601 -16.6402,-0.71937 -1.4193,-0.55317 -5.643,-1.77379 -9.386,-2.71248 -5.4614,-1.36967 -7.542,-1.48602 -10.5354,-0.58917 -2.0516,0.61466 -5.9279,1.12411 -8.6141,1.13211 -2.6862,0.008 -6.9089,0.72503 -9.3839,1.5934 -2.475,0.86836 -5.7345,1.74005 -7.2433,1.93709 -1.5088,0.19703 -5.5588,1.02846 -9,1.84761 -4.2635,1.01489 -14.6991,1.684 -32.7567,2.10031 -34.05104,0.78501 -48.2551,1.72438 -55.00005,3.63735 -10.31994,2.92689 -12.00283,3.9426 -14.43825,8.71427 -1.30685,2.56048 -4.95162,8.2321 -8.09949,12.60361 -3.14787,4.3715 -9.25625,15.1715 -13.57417,24 -4.31792,8.82849 -9.64672,18.75181 -11.84178,22.05181 -4.0472,6.08446 -17.50721,27.84269 -19.79548,31.99959 -2.14121,3.88973 -19.43969,27.8576 -26.07121,36.12291 -3.47621,4.33262 -7.75121,9.67534 -9.5,11.87269 -1.74879,2.19736 -5.71898,6.74676 -8.82264,10.10978 -3.10365,3.36302 -6.92865,8.08442 -8.5,10.492 -1.57134,2.40757 -3.42217,5.05818 -4.11296,5.89022 -0.69078,0.83205 -2.95934,3.98783 -5.04124,7.01283 -5.69087,8.2688 -11.25577,10.3172 -21.48528,7.9084 z"
       id="path4046"
       inkscape:connector-curvature="0"
       sodipodi:nodetypes="csssssssssssssssssssssssscssssssssssssscssscsssssssssscssscssssssscsssssccssssscsssssssscsscsssssssssssscsssssssssssssssssssssssssssscccsssscccsccsssssccccsssccscsccsccssssssssssscscscscssssssssscssssccccsscsccsssscssssssssssssssscscsccccccssscssssssssccsssssssssssssssssscscc" />
    <g
       id="g3538"
       transform="translate(31.659555,419.76474)">
      <path
         inkscape:connector-curvature="0"
         id="path3292"
         d="m 190.01976,491.61849 18.18305,86.11032 24.51469,16.49292 z"
         style="fill:#cc3f00;fill-opacity:1;stroke:none" />
      <path
         inkscape:connector-curvature="0"
         id="path3220"
         d="m 499.40254,306.00482 -128.16525,85.8644 29.67373,-87.12712 z"
         style="fill:#76cc66;fill-opacity:1;stroke:none" />
      <path
         sodipodi:nodetypes="ccccc"
         inkscape:connector-curvature="0"
         id="path3226"
         d="m 371.23729,391.86922 70.08051,-3.78813 82.85169,-87.19068 -24.76695,5.11441 z"
         style="fill:#48bdb2;fill-opacity:1;stroke:none" />
      <path
         sodipodi:nodetypes="cccccc"
         inkscape:connector-curvature="0"
         id="path3228"
         d="m 441.3178,388.08109 29.67373,-32.83051 40.40678,17.04661 -50.67797,30.69915 -32.48579,0.36438 z"
         style="fill:#009948;fill-opacity:1;stroke:none" />
      <path
         sodipodi:nodetypes="ccccc"
         inkscape:connector-curvature="0"
         id="path3230"
         d="m 371.23729,391.86922 -46.72034,15.7839 20.70339,6.12712 34.13382,-3.75052 z"
         style="fill:#005004;fill-opacity:1;stroke:none" />
      <path
         sodipodi:nodetypes="ccccc"
         inkscape:connector-curvature="0"
         id="path3234"
         d="m 371.23729,391.86922 70.08051,-3.78813 -8.84801,11.49929 -53.65623,10.59816 z"
         style="fill:#3b6774;fill-opacity:1;stroke:none" />
      <path
         sodipodi:nodetypes="ccccc"
         inkscape:connector-curvature="0"
         id="path3238"
         d="m 511.39831,372.29719 41.66949,29.04237 -45.05539,-11.29394 -47.79207,11.70072 z"
         style="fill:#244812;fill-opacity:1;stroke:none" />
      <path
         sodipodi:nodetypes="cccc"
         inkscape:connector-curvature="0"
         id="path3240"
         d="m 511.39831,372.29719 12.27118,-71.65678 46.44492,4.10169 z"
         style="fill:#99ccff;stroke:none" />
      <path
         sodipodi:nodetypes="ccccc"
         inkscape:connector-curvature="0"
         id="path3242"
         d="m 553.8178,401.08956 13.78636,-13.20696 -23.37535,-16.84812 -32.8305,1.26271 z"
         style="fill:#1f8f96;fill-opacity:1;stroke:none" />
      <path
         sodipodi:nodetypes="cccc"
         inkscape:connector-curvature="0"
         id="path3244"
         d="m 546.22881,372.53448 23.8856,-67.79238 -58.7161,67.55509 z"
         style="fill:#00c7c7;fill-opacity:1;stroke:none" />
      <path
         sodipodi:nodetypes="ccccc"
         inkscape:connector-curvature="0"
         id="path3246"
         d="m 570.11441,304.7421 0,0 12.62712,31.5678 1.49576,-26.14831 z"
         style="fill:#004699;fill-opacity:1;stroke:none" />
      <path
         sodipodi:nodetypes="cccc"
         inkscape:connector-curvature="0"
         id="path3248"
         d="m 570.11441,304.7421 -8.20763,22.72882 23.45975,12.46398 z"
         style="fill:#006eff;fill-opacity:1;stroke:none" />
      <path
         sodipodi:nodetypes="cccc"
         inkscape:connector-curvature="0"
         id="path3250"
         d="m 561.90678,327.47092 c 19.4558,8.987 37.41708,19.46851 53.87288,31.45551 l -60.8178,-11.88348 z"
         style="fill:#ffe533;fill-opacity:1;stroke:none" />
      <path
         sodipodi:nodetypes="cccc"
         inkscape:connector-curvature="0"
         id="path3252"
         d="m 554.96186,347.04295 -9.73305,25.49153 41.93221,31.96186 z"
         style="fill:#815200;fill-opacity:1;stroke:none" />
      <path
         inkscape:connector-curvature="0"
         id="path3254"
         d="m 554.96186,347.04295 84.6017,77.02542 -52.40254,-19.57203 z"
         style="fill:#8f4124;fill-opacity:1;stroke:none" />
      <path
         sodipodi:nodetypes="cccc"
         inkscape:connector-curvature="0"
         id="path3256"
         d="m 554.96186,347.04295 133.84746,82.07627 -70.90466,-70.31779 z"
         style="fill:#ffb526;fill-opacity:1;stroke:none" />
      <path
         inkscape:connector-curvature="0"
         id="path3258"
         d="m 688.80932,429.11922 -49.24576,-5.05085 -84.6017,-77.02542 z"
         style="fill:#cf5300;fill-opacity:1;stroke:none" />
      <path
         inkscape:connector-curvature="0"
         id="path3260"
         d="m 639.56356,424.06837 47.35169,32.19916 1.89407,-27.14831 z"
         style="fill:#592b80;fill-opacity:1;stroke:none" />
      <path
         sodipodi:nodetypes="cccccccc"
         inkscape:connector-curvature="0"
         id="path3262"
         d="m 688.80932,429.11922 3.15678,-22.09746 -18.1699,-7.43382 -49.64154,-32.78651 64.65466,62.31779 -1.89407,27.14831 18.84111,7.90254 -16.94704,-35.05085"
         style="fill:#8e51a0;fill-opacity:1;stroke:none" />
      <path
         sodipodi:nodetypes="cccccc"
         inkscape:connector-curvature="0"
         id="path3264"
         d="m 705.38136,465.29507 7.76227,-1.73964 13.95383,-25.96587 -38.28814,-8.47034 0,0 z"
         style="fill:#004d99;fill-opacity:1;stroke:none" />
      <path
         sodipodi:nodetypes="ccccc"
         inkscape:connector-curvature="0"
         id="path3266"
         d="m 688.80932,429.11922 3.15678,-22.09746 14.85778,-4.33635 26.81171,-15.86704 z"
         style="fill:#5833ff;fill-opacity:1;stroke:none" />
      <path
         sodipodi:nodetypes="ccccc"
         inkscape:connector-curvature="0"
         id="path3268"
         d="m 688.80932,429.11922 44.82627,-42.30085 -2.66313,37.14619 -4.74296,13.79009 z"
         style="fill:#007ce1;fill-opacity:1;stroke:none" />
      <path
         sodipodi:nodetypes="cccccc"
         inkscape:connector-curvature="0"
         id="path3272"
         d="m 733.63559,386.81837 20.61017,-8.48305 -4.43856,-18.75423 -7.7075,6.09315 -13.0482,23.73729 z"
         style="fill:#66e9ff;fill-opacity:1;stroke:none" />
      <path
         sodipodi:nodetypes="cccc"
         inkscape:connector-curvature="0"
         id="path3274"
         d="m 754.12712,398.32685 -20.49153,-11.50848 -2.41313,33.89619 23.0233,-23.01907"
         style="fill:#99bacc;fill-opacity:1;stroke:none" />
      <path
         inkscape:connector-curvature="0"
         id="path3278"
         d="m 324.51695,407.65312 -74.27013,-68.09709 120.99047,52.31319 z"
         style="fill:#996600;stroke:none" />
      <path
         inkscape:connector-curvature="0"
         id="path3280"
         d="m 371.23729,391.86922 29.67373,-87.12712 -82.26029,64.39004 z"
         style="fill:#bcc13d;fill-opacity:1;stroke:none" />
      <path
         sodipodi:nodetypes="ccccc"
         inkscape:connector-curvature="0"
         id="path3282"
         d="m 318.65073,369.13214 82.26029,-64.39004 -86.58083,19.18819 -64.08337,15.62574 z"
         style="fill:#ff9a09;fill-opacity:1;stroke:none" />
      <path
         sodipodi:nodetypes="cccc"
         inkscape:connector-curvature="0"
         id="path3116"
         d="m 310.62712,422.17431 -6.47582,100.09375 65.67876,-107.65786 -59.20294,7.56411"
         style="fill:#314e00;fill-opacity:1;stroke:none" />
      <path
         inkscape:connector-curvature="0"
         id="path3114"
         d="m 310.62712,422.17431 -31.6199,-56.24833 45.50973,41.72714"
         style="fill:#b98a00;fill-opacity:1;stroke:none" />
      <path
         sodipodi:nodetypes="cccc"
         inkscape:connector-curvature="0"
         id="path3288"
         d="m 324.51695,407.65312 -13.88983,14.52119 60.59322,-8.64407 -46.70339,-5.87712"
         style="fill:#3e7a00;fill-opacity:1;stroke:none" />
      <path
         sodipodi:nodetypes="cccc"
         inkscape:connector-curvature="0"
         id="path3290"
         d="m 304.1513,522.26806 -83.21949,20.27338 29.39655,48.42639 z"
         style="fill:#006600;stroke:none" />
      <path
         inkscape:connector-curvature="0"
         id="path3294"
         d="m 190.01976,491.61849 60.3086,99.34934 -17.61096,3.25393 z"
         style="fill:#ff0000;fill-opacity:1;stroke:none" />
      <path
         inkscape:connector-curvature="0"
         id="path3296"
         d="M 190.01976,491.61849 86.495763,458.79295 195.77186,518.85897 190.01976,491.61849"
         style="fill:#ff3300;stroke:none" />
      <path
         inkscape:connector-curvature="0"
         id="path3298"
         d="M 195.77186,518.85897 86.495763,458.79295 203.2225,554.14335 Z"
         style="fill:#990000;stroke:none" />
      <path
         sodipodi:nodetypes="cccc"
         inkscape:connector-curvature="0"
         id="path3302"
         d="m 86.495763,458.79295 -1.368644,-33.5339 -27.35646,12.39911 z"
         style="fill:#333366;stroke:none" />
      <path
         sodipodi:nodetypes="cccc"
         inkscape:connector-curvature="0"
         id="path3304"
         d="M 86.495763,458.79295 57.770659,437.65816 17,442.20821 Z"
         style="fill:#0066cc;stroke:none" />
      <path
         sodipodi:nodetypes="cccc"
         inkscape:connector-curvature="0"
         id="path3306"
         d="m 15.75,458.54295 70.745763,0.25 L 44.5,469.6277 27,462.54295"
         style="fill:#99ccff;stroke:none" />
      <path
         sodipodi:nodetypes="ccc"
         inkscape:connector-curvature="0"
         id="path3308"
         d="M 86.495763,458.79295 78.055085,481.50058 41.25,467.3777"
         style="fill:#9999ff;stroke:none" />
      <path
         sodipodi:nodetypes="ccc"
         inkscape:connector-curvature="0"
         id="path3310"
         d="m 86.495763,458.79295 21.646507,42.24486 -32.325822,-16.6145"
         style="fill:#666699;stroke:none" />
      <path
         sodipodi:nodetypes="ccccc"
         inkscape:connector-curvature="0"
         id="path3314"
         d="m 203.2225,554.14335 -116.726737,-95.3504 21.646507,42.24486 99.65275,71.09982 z"
         style="fill:#702700;fill-opacity:1;stroke:none" />
      <path
         sodipodi:nodetypes="cccc"
         inkscape:connector-curvature="0"
         id="path3316"
         d="m 190.01976,491.61849 117.61689,-23.2219 -86.70484,74.14485 z"
         style="fill:#00d73a;fill-opacity:1;stroke:none" />
      <path
         sodipodi:nodetypes="cccc"
         inkscape:connector-curvature="0"
         id="path3318"
         d="m 307.63665,468.39659 -3.48535,53.87147 -83.21949,20.27338 z"
         style="fill:#009900;stroke:none" />
      <path
         inkscape:connector-curvature="0"
         id="path3320"
         d="m 310.62712,422.17431 -75.92496,61.99229 72.93449,-15.77001 z"
         style="fill:#009922;fill-opacity:1;stroke:none" />
      <path
         inkscape:connector-curvature="0"
         id="path3322"
         d="m 310.62712,422.17431 -61.19083,0.012 -1.99564,-45.0532 z"
         style="fill:#8a9966;fill-opacity:1;stroke:none" />
      <path
         inkscape:connector-curvature="0"
         id="path3324"
         d="m 249.43629,422.18631 31.11532,24.54448 30.07551,-24.55648 z"
         style="fill:#dcff99;fill-opacity:1;stroke:none" />
      <path
         inkscape:connector-curvature="0"
         id="path3326"
         d="m 249.43629,422.18631 -3.79276,24.34808 34.90808,0.1964"
         style="fill:#516633;fill-opacity:1;stroke:none" />
      <path
         inkscape:connector-curvature="0"
         id="path3328"
         d="m 245.64353,446.53439 -10.94137,37.63221 45.84945,-37.43581"
         style="fill:#57ea00;fill-opacity:1;stroke:none" />
      <path
         inkscape:connector-curvature="0"
         id="path3330"
         d="m 400.91102,304.7421 -97.86017,-20.83474 11.27934,40.02293 z"
         style="fill:#ffea00;fill-opacity:1;stroke:none" />
      <path
         inkscape:connector-curvature="0"
         id="path3346"
         d="m 400.91102,304.7421 -97.86017,-20.83474 11.68008,-41.66949 z"
         style="fill:#002681;fill-opacity:1;stroke:none" />
      <path
         inkscape:connector-curvature="0"
         id="path3348"
         d="m 400.91102,304.7421 10.26583,-31.35622 -96.44592,-31.14801 z"
         style="fill:#3d0064;fill-opacity:1;stroke:none" />
      <path
         sodipodi:nodetypes="ccccc"
         inkscape:connector-curvature="0"
         id="path3350"
         d="m 411.17685,273.38588 -96.44592,-31.14801 116.53922,-40.1566 -4.49878,33.47955 z"
         style="fill:#0015a3;fill-opacity:1;stroke:none" />
      <path
         sodipodi:nodetypes="ccccc"
         inkscape:connector-curvature="0"
         id="path3362"
         d="m 245.62542,313.22143 68.70477,10.70886 -64.08337,15.62574 -9.71369,-8.43988 z"
         style="fill:#37de2b;fill-opacity:1;stroke:none" />
      <path
         inkscape:connector-curvature="0"
         id="path3364"
         d="m 303.05085,283.90736 11.27934,40.02293 -68.70477,-10.70886 z"
         style="fill:#b5cc33;fill-opacity:1;stroke:none" />
      <path
         sodipodi:nodetypes="cccccc"
         inkscape:connector-curvature="0"
         id="path3366"
         d="m 303.05085,283.90736 -57.42543,29.31407 16.26336,-15.89824 -7.45405,-18.4496 7.56364,-24.20345 z"
         style="fill:#009900;stroke:none" />
      <path
         inkscape:connector-curvature="0"
         id="path3370"
         d="m 303.05085,283.90736 -26.2746,-61.58697 -14.77788,32.34975 z"
         style="fill:#007448;fill-opacity:1;stroke:none" />
      <path
         inkscape:connector-curvature="0"
         id="path3372"
         d="m 314.73093,242.23787 -37.95468,-19.91748 26.2746,61.58697 11.68008,-41.66949"
         style="fill:#003399;fill-opacity:1;stroke:none" />
      <path
         inkscape:connector-curvature="0"
         id="path3374"
         d="m 314.73093,242.23787 3.15678,-49.24577 -41.11146,29.32829 z"
         style="fill:#009da9;fill-opacity:1;stroke:none" />
      <path
         sodipodi:nodetypes="cccc"
         inkscape:connector-curvature="0"
         id="path3376"
         d="M 314.73093,242.23787 360.36632,226.51302 317.88771,192.9921 Z"
         style="fill:#006aaf;fill-opacity:1;stroke:none" />
      <path
         inkscape:connector-curvature="0"
         id="path3888"
         d="m 317.88771,192.9921 -33.25238,-24.52603 -7.85908,53.85432 41.11146,-29.32829"
         style="fill:#62c7e3;fill-opacity:1;stroke:none" />
      <path
         sodipodi:nodetypes="cccc"
         inkscape:connector-curvature="0"
         id="path3378"
         d="m 317.88771,192.9921 113.38244,9.08917 -70.90383,24.43175 -42.47861,-33.52092"
         style="fill:#64327c;fill-opacity:1;stroke:none" />
      <path
         sodipodi:nodetypes="ccccc"
         inkscape:connector-curvature="0"
         id="path3382"
         d="m 439.67648,195.17142 -21.01204,-28.83509 -100.77673,26.65577 113.38244,9.08917 z"
         style="fill:#56217b;fill-opacity:1;stroke:none" />
      <path
         sodipodi:nodetypes="cccc"
         inkscape:connector-curvature="0"
         id="path3386"
         d="m 418.66444,166.33633 -29.20655,-36.59345 -41.78218,55.14597 z"
         style="fill:#003bcb;fill-opacity:1;stroke:none" />
      <path
         sodipodi:nodetypes="ccccc"
         inkscape:connector-curvature="0"
         id="path3398"
         d="m 347.67571,184.88885 -9.90029,-50.29717 -14.52118,38.82839 -5.36653,19.57203 z"
         style="fill:#00bbe7;fill-opacity:1;stroke:none" />
      <path
         sodipodi:nodetypes="cccc"
         inkscape:connector-curvature="0"
         id="path3400"
         d="m 337.77542,134.59168 9.90029,50.29717 41.78218,-55.14597 z"
         style="fill:#0058a7;fill-opacity:1;stroke:none" />
      <path
         sodipodi:nodetypes="cccc"
         inkscape:connector-curvature="0"
         id="path3402"
         d="m 390.51855,130.09643 -29.55981,-23.53686 -23.18332,28.03211 51.68247,-4.8488"
         style="fill:#5e7bcb;fill-opacity:1;stroke:none" />
      <path
         sodipodi:nodetypes="cccc"
         inkscape:connector-curvature="0"
         id="path3404"
         d="m 360.60519,108.68089 -47.24526,2.60643 24.41549,23.30436 22.47621,-26.26434"
         style="fill:#a5a5d3;fill-opacity:1;stroke:none" />
      <path
         sodipodi:nodetypes="cccc"
         inkscape:connector-curvature="0"
         id="path3406"
         d="m 337.77542,134.59168 -113.47757,-10.03281 43.48904,21.6914 z"
         style="fill:#bcff00;fill-opacity:1;stroke:none" />
      <path
         sodipodi:nodetypes="cccc"
         inkscape:connector-curvature="0"
         id="path3408"
         d="m 337.77542,134.59168 -69.98853,11.65859 21.09734,19.50732 z"
         style="fill:#ffff00;stroke:none" />
      <path
         sodipodi:nodetypes="cccc"
         inkscape:connector-curvature="0"
         id="path3410"
         d="m 337.77542,134.59168 -22.39406,-22.875 -91.08351,12.84219 z"
         style="fill:#66cc33;stroke:none" />
      <path
         sodipodi:nodetypes="cccc"
         inkscape:connector-curvature="0"
         id="path3412"
         d="m 299.21339,115.36519 -86.61978,-23.56472 53.93906,27.87649 z"
         style="fill:#009900;stroke:none" />
      <path
         inkscape:connector-curvature="0"
         id="path3414"
         d="m 242.7729,122.42334 23.75977,-2.74638 -53.93906,-27.87649 27.55569,30.92614"
         style="fill:#00d96c;fill-opacity:1;stroke:none" />
      <path
         inkscape:connector-curvature="0"
         id="path3416"
         d="m 176.14831,108.07473 49.72312,-1.37237 -38.3535,-27.285829 z"
         style="fill:#4dd1ff;fill-opacity:1;stroke:none" />
      <path
         inkscape:connector-curvature="0"
         id="path3418"
         d="m 176.14831,108.07473 26.3626,19.01463 23.36052,-20.387"
         style="fill:#a8fee7;fill-opacity:1;stroke:none" />
      <path
         inkscape:connector-curvature="0"
         id="path3420"
         d="m 202.51091,127.08936 37.63839,-4.36275 -14.27787,-16.02425 z"
         style="fill:#33ccca;fill-opacity:1;stroke:none" />
      <path
         inkscape:connector-curvature="0"
         id="path3422"
         d="m 212.59361,91.80047 -25.07568,-12.383939 38.3535,27.285829"
         style="fill:#0083d7;stroke:none" />
      <path
         sodipodi:nodetypes="ccccc"
         inkscape:connector-curvature="0"
         id="path3424"
         d="m 176.14831,108.07473 -27.98788,5.72608 5.24602,-8.41974 34.11148,-25.964539 z"
         style="fill:#0099ff;stroke:none" />
      <path
         sodipodi:nodetypes="ccccc"
         inkscape:connector-curvature="0"
         id="path3426"
         d="m 176.14831,108.07473 -27.98788,5.72608 11.51474,11.92107 42.83574,1.36748 z"
         style="fill:#508bff;fill-opacity:1;stroke:none" />
      <path
         sodipodi:nodetypes="cccc"
         inkscape:connector-curvature="0"
         id="path3444"
         d="m 462.6481,163.43433 86.43037,-25.99788 -85.43178,8.36885 z"
         style="fill:#9b2700;fill-opacity:1;stroke:none" />
      <path
         inkscape:connector-curvature="0"
         id="path3446"
         d="m 549.34364,137.70162 62.12458,-52.040026 10.42544,10.628495 z"
         style="fill:#666699;stroke:none" />
      <path
         sodipodi:nodetypes="ccc"
         inkscape:connector-curvature="0"
         id="path3448"
         d="m 470.33351,120.70537 79.26183,0.62783 -86.03703,24.38372"
         style="fill:#a70000;fill-opacity:1;stroke:none" />
      <path
         sodipodi:nodetypes="cccc"
         inkscape:connector-curvature="0"
         id="path3450"
         d="m 549.34364,137.70162 0.2517,-16.36842 61.87288,-35.671606 -62.12458,52.040026"
         style="fill:#996600;stroke:none" />
      <path
         inkscape:connector-curvature="0"
         id="path3452"
         d="m 549.59534,121.3332 1.95834,-24.327263 59.91454,-11.344343"
         style="fill:#ff4706;fill-opacity:1;stroke:none" />
      <path
         inkscape:connector-curvature="0"
         id="path3454"
         d="m 551.55368,97.005937 -69.90646,23.699433 67.94812,0.62783"
         style="fill:#fbb800;fill-opacity:1;stroke:none" />
      <path
         inkscape:connector-curvature="0"
         id="path3456"
         d="m 611.46822,85.661594 -2.12334,-9.974768 -57.7912,21.319111"
         style="fill:#bd5ff5;fill-opacity:1;stroke:none" />
      <path
         sodipodi:nodetypes="cccc"
         inkscape:connector-curvature="0"
         id="path3491"
         d="m 609.34488,75.686826 22.58619,-20.444265 8.42274,-2.218679 -28.88559,32.637712"
         style="fill:#f846ff;fill-opacity:1;stroke:none" />
      <path
         inkscape:connector-curvature="0"
         id="path3458"
         d="m 611.46822,85.661594 36.23344,-4.987089 -25.808,15.615584"
         style="fill:#9999cc;stroke:none" />
      <path
         sodipodi:nodetypes="cccc"
         inkscape:connector-curvature="0"
         id="path3460"
         d="m 611.46822,85.661594 30.26059,-34.387712 15.03975,16.34934 -45.30034,18.038372"
         style="fill:#0083d7;fill-opacity:1;stroke:none" />
      <path
         sodipodi:nodetypes="cccc"
         inkscape:connector-curvature="0"
         id="path3462"
         d="m 650.60381,50.773882 9.42454,-5.351713 20.89398,12.207863 z"
         style="fill:#99ccff;stroke:none" />
      <path
         sodipodi:nodetypes="ccccc"
         inkscape:connector-curvature="0"
         id="path3464"
         d="m 642.60381,52.898882 14.16475,14.72434 17.63489,-2.603286 10.26888,-7.514904 -37.44352,-8.48115"
         style="fill:#4ab7ff;fill-opacity:1;stroke:none" />
      <path
         sodipodi:nodetypes="cccccc"
         inkscape:connector-curvature="0"
         id="path3466"
         d="m 656.76856,67.623222 7.435,-2.955002 -2.67457,11.596089 -28.65393,9.901874 -21.40684,-0.504589 z"
         style="fill:#816fff;fill-opacity:1;stroke:none" />
      <path
         sodipodi:nodetypes="ccccc"
         inkscape:connector-curvature="0"
         id="path3483"
         d="m 247.44065,377.13311 31.56657,-11.20713 -28.7604,-26.36995 5.48963,15.62746 z"
         style="fill:#ffea00;fill-opacity:1;stroke:none" />
      <path
         sodipodi:nodetypes="ccccc"
         inkscape:connector-curvature="0"
         id="path3485"
         d="m 86.495763,458.79295 14.489277,-20.21887 7.29625,18.20885 81.73847,34.83556 z"
         style="fill:#ff794b;stroke:none" />
      <path
         sodipodi:nodetypes="ccccc"
         inkscape:connector-curvature="0"
         id="path3487"
         d="m 100.98504,438.57408 -5.169403,-10.46527 -11.636548,-3.21523 2.316674,33.89937 z"
         style="fill:#6666cc;stroke:none" />
      <path
         sodipodi:nodetypes="cccc"
         inkscape:connector-curvature="0"
         id="path3493"
         d="m 470.99153,355.25058 40.40678,17.04661 13.02118,-72.15678 z"
         style="fill:#00ced7;fill-opacity:1;stroke:none" />
      <path
         sodipodi:nodetypes="cccc"
         inkscape:connector-curvature="0"
         id="path3495"
         d="m 733.63559,386.81837 21.11017,-9.23305 -1.49364,21.49153 z"
         style="fill:#0ccae7;fill-opacity:1;stroke:none" />
      <path
         inkscape:connector-curvature="0"
         id="path3497"
         d="m 247.44065,377.13311 31.56657,-11.20713 31.6199,56.24833 z"
         style="fill:#ffcc00;stroke:none" />
      <path
         sodipodi:nodetypes="cccccc"
         inkscape:connector-curvature="0"
         id="path3499"
         d="M 86.495763,458.79295 13.25,440.70821 3.2944054,446.69837 0.25,452.79295 l 7.5057966,6.78956 78.7399664,-0.78956"
         style="fill:#0099ff;stroke:none" />
      <path
         sodipodi:nodetypes="cccc"
         inkscape:connector-curvature="0"
         id="path3501"
         d="m 463.91186,145.71692 85.68348,-24.38372 -0.2517,16.36842 z"
         style="fill:#d75000;fill-opacity:1;stroke:none" />
      <path
         transform="translate(-20,-20)"
         inkscape:connector-curvature="0"
         id="path3146"
         d="M 467.39758,141.6053 524.67323,121.80631 521.1377,82.208328 Z"
         style="fill:#1e74fe;fill-opacity:1;stroke:none" />
      <path
         transform="translate(-20,-20)"
         inkscape:connector-curvature="0"
         id="path3148"
         d="M 467.39758,141.6053 508.72302,64.949724 476.42405,31.26355 439.6108,26.375298 Z"
         style="fill:#ec1dc3;fill-opacity:1;stroke:none" />
      <path
         transform="translate(-20,-20)"
         inkscape:connector-curvature="0"
         id="path3150"
         d="M 467.39758,141.6053 439.6108,26.375298 409.59997,32.747576 390.09611,43.905772 375.64884,47.99209 Z"
         style="fill:#ff5252;fill-opacity:1;stroke:none" />
      <path
         transform="translate(-20,-20)"
         inkscape:connector-curvature="0"
         id="path3152"
         d="m 467.39758,141.6053 -91.74874,-93.61321 5.3099,78.56748 28.49915,23.18331 z"
         style="fill:#efc000;fill-opacity:1;stroke:none" />
      <path
         sodipodi:nodetypes="ccccc"
         transform="translate(-20,-20)"
         inkscape:connector-curvature="0"
         id="path3156"
         d="m 467.39758,141.6053 7.15299,11.47798 8.62964,14.0094 -44.51577,19.24365 z"
         style="fill:#85cb00;fill-opacity:1;stroke:none" />
      <path
         sodipodi:nodetypes="cccccc"
         transform="translate(-20,-20)"
         inkscape:connector-curvature="0"
         id="path3160"
         d="m 438.66444,186.33633 21.01204,28.83509 9.91296,-20.93196 13.74532,-11.61651 -0.15455,-15.53027 z"
         style="fill:#450095;fill-opacity:1;stroke:none" />
      <path
         sodipodi:nodetypes="cccc"
         inkscape:connector-curvature="0"
         id="path3396"
         d="m 337.77542,134.59168 -53.14009,33.87439 33.25238,24.52603 z"
         style="fill:#3b88b6;fill-opacity:1;stroke:none" />
      <path
         transform="translate(-20,-20)"
         inkscape:connector-curvature="0"
         id="path3162"
         d="m 467.39758,141.6053 48.80121,-53.938181 -1.10122,-15.530276 -8.90955,-2.484877 z"
         style="fill:#887bde;fill-opacity:1;stroke:none" />
      <path
         transform="translate(-20,-20)"
         inkscape:connector-curvature="0"
         id="path3938"
         d="m 409.45789,149.74288 57.93969,-8.13758 -28.73314,44.73103 z"
         style="fill:#fbff1e;fill-opacity:1;stroke:none" />
      <path
         sodipodi:nodetypes="cccccc"
         transform="translate(-20,-20)"
         inkscape:connector-curvature="0"
         id="path3940"
         d="m 467.39758,141.6053 21.59377,-7.46451 2.21355,6.87178 -1.95403,5.32741 -6.07066,20.7527 z"
         style="fill:#00d1d1;fill-opacity:1;stroke:none" />
    </g>
    <path
       id="path3472"
       d="m 966.97864,610.0084 0,116.89585 102.84116,57.9374 102.8411,-57.9374 0,-116.89585 -102.8411,-57.9374 -102.84116,57.9374 z m 98.38306,132.66348 -59.6503,-32.90782 0,-71.6462 59.6503,34.28595 0,70.26807 z m 67.8745,-32.90782 -58.9584,32.90782 0,-70.27365 58.9584,-34.28595 c 0,-0.6807 0,71.65178 0,71.65178 z m 0,-81.93478 -63.7624,37.71176 -64.1027,-37.71176 64.1027,-34.6263 63.7624,34.6263 z"
       inkscape:connector-curvature="0"
       style="fill:#eeeeee" />
    <path
       id="path3474"
       d="m 1244.3071,621.31802 -32.5675,0 0,97.01056 21.9386,0 0,-35.99328 10.6289,0 c 18.8531,0 32.9078,-10.96927 32.9078,-31.19492 0,-20.22564 -14.0547,-29.82236 -32.9078,-29.82236 z m -4.458,43.1964 -6.1709,0 0,-26.05621 6.1709,0 c 8.9104,0 17.1402,3.08546 17.1402,12.68217 -0.6863,10.62893 -8.5701,13.37404 -17.1402,13.37404 z"
       inkscape:connector-curvature="0"
       style="fill:#eeeeee" />
    <rect
       id="rect3476"
       height="97.010551"
       width="21.938545"
       y="621.31812"
       x="1284.4125"
       style="fill:#eeeeee" />
    <polygon
       id="polygon3478"
       points="620.485,773.854 625.461,773.854 628.84,767.956 632.281,773.854 637.442,773.854 631.298,764.577 637.012,756.528 632.097,756.528 628.84,761.259 625.708,756.528 620.976,756.528 626.383,764.577 "
       style="fill:#eeeeee"
       transform="matrix(5.5794879,0,0,5.5794879,-2151.5199,-3599.7208)" />
    <polygon
       id="polygon3480"
       points="647.764,763.471 641.988,763.471 641.988,759.969 648.01,759.969 648.01,756.528 638.057,756.528 638.057,773.854 648.01,773.854 648.01,770.414 641.988,770.414 641.988,766.912 647.764,766.912 "
       style="fill:#eeeeee"
       transform="matrix(5.5794879,0,0,5.5794879,-2151.5199,-3599.7208)" />
    <path
       id="path3482"
       d="m 1547.0055,621.31802 -31.2005,77.81712 -21.9386,0 0,-77.81712 -21.9441,0 0,97.01056 35.9988,0 19.1879,0 4.458,0 7.1976,-19.19344 37.0254,0 7.2032,19.19344 23.6458,0 -39.0787,-97.01056 -20.5548,0 0,0 z m -0.3515,57.9374 10.9748,-28.10946 0.3404,0 10.9748,28.10946 -22.29,0 z"
       inkscape:connector-curvature="0"
       style="fill:#eeeeee" />
    <polygon
       id="polygon3484"
       points="674.367,773.854 678.361,773.854 678.361,759.969 682.478,759.969 682.478,756.528 670.251,756.528 670.251,759.969 674.367,759.969 "
       style="fill:#eeeeee"
       transform="matrix(5.5794879,0,0,5.5794879,-2151.5199,-3599.7208)" />
    <polygon
       id="polygon3486"
       points="693.537,763.471 687.762,763.471 687.762,759.969 693.721,759.969 693.721,756.528 683.829,756.528 683.829,773.854 693.721,773.854 693.721,770.414 687.762,770.414 687.762,766.912 693.537,766.912 "
       style="fill:#eeeeee"
       transform="matrix(5.5794879,0,0,5.5794879,-2151.5199,-3599.7208)" />
    <path
       id="path3488"
       d="m 1751.3096,621.31802 -24.3322,0 0,97.01056 24.6837,0 c 26.7313,0 48.6754,-20.22565 48.6754,-48.68103 0.3404,-28.10388 -22.2844,-48.32953 -49.0269,-48.32953 z m 1.3725,77.47677 -3.4202,0 0,-57.59147 3.4202,0 c 16.1136,0 27.7691,12.68217 27.7691,29.13608 -0.6862,15.42729 -11.6555,28.45539 -27.7691,28.45539 z"
       inkscape:connector-curvature="0"
       style="fill:#eeeeee" />
  </g>
</svg>
